<?xml version="1.0" encoding="UTF-8"?>
<svg id="Layer_1" data-name="Layer 1" xmlns="http://www.w3.org/2000/svg" viewBox="0 0 261.99 42.5">
  <defs>
    <style>
      .cls-1 {
        fill: #455cc7;
      }

      .cls-2 {
        fill: #a7c5ee;
      }
    </style>
  </defs>
  <g>
    <path class="cls-1" d="M122.7,6.1c.9-.4,2,.1,2.3,1,.4.9-.1,2-1,2.3-.9.4-2-.1-2.3-1-.3-.9.1-1.9,1-2.3"/>
    <path class="cls-1" d="M124.7,15.4c0,.1.1.1.2,0l.2-.9c0-.1.1-.1.1,0l.6.8c0,.1.1,0,.2-.1v-1s0-.1.1-.1h.1l.7.7c.1.1.2,0,.1-.1l-.1-1c0-.1.1-.1.1-.1l.8.5c.07,0,.1-.03.1-.1l-.3-1.1h0l-2.4-2.7h-.1c-.1.1-.3.2-.4.2-.2.1-.3.1-.5.1,0,0-.1,0-.1.1l.2,3.6h0l.4,1.2h0Z"/>
    <path class="cls-1" d="M122,.1c0-.1-.1-.1-.2,0l-.1.9c0,.1-.1.1-.1,0l-.6-.7c0-.1-.1,0-.1.1v1.1h-.1l-.8-.8c-.1-.1-.2,0-.1.1l.1,1c0,.1-.1.1-.1.1l-.9-.6c-.07,0-.1.03-.1.1l.3,1.1h0l2.4,2.7h.1c.1-.1.3-.2.4-.3.2-.1.3-.1.5-.1,0,0,.1,0,.1-.1l-.2-3.6h0l-.5-1h0Z"/>
    <path class="cls-1" d="M131.1,6.4c.1,0,0-.1,0-.2l-1-.2c-.1,0-.1-.1,0-.1l.8-.6c.1-.1,0-.1,0-.1h-1s-.1,0-.1-.1v-.1l.7-.7c.1-.1,0-.1-.1-.1l-1,.1c-.1,0-.1-.1-.1-.1l.5-.8c0-.07-.03-.1-.1-.1l-1.1.3h0l-2.6,2.5v.1c.1.1.2.3.3.4.1.2.1.3.1.5,0,0,0,.1.1.1l3.6-.2h0l1-.6h0Z"/>
    <path class="cls-1" d="M115.7,9.1c-.1,0-.1.1,0,.2l.9.2c.1,0,.1.1,0,.1l-.8.6c-.1,0,0,.1.1.1h1s.1,0,.1.1v.1l-.7.7c-.1.1,0,.1.1.1l1-.1c.1,0,.1.1.1.1l-.5.8c0,.07.03.1.1.1l1.1-.3h0l2.7-2.4v-.1c-.1-.1-.2-.3-.3-.4-.1-.2-.1-.3-.1-.5,0,0,0-.1-.1-.1l-3.6.2h0s-1.1.5-1.1.5Z"/>
    <path class="cls-1" d="M129.8,12.2c.1,0,.1-.1.1-.1l-.5-.8c0-.07.03-.1.1-.1l.9.1c.1,0,.1-.1.1-.1l-.7-.7v-.1s0-.1.1-.1h1c.1,0,.1-.1,0-.1l-.8-.6c-.1,0,0-.1,0-.1l.9-.2c.1,0,.1-.1,0-.2l-1-.5h0l-3.6-.2s-.1,0-.1.1c0,.2-.1.3-.1.5-.1.2-.2.3-.3.4v.1l2.7,2.4h0l1.2.3h0Z"/>
    <path class="cls-1" d="M117,3.3c-.1,0-.1.1-.1.1l.5.8c0,.07-.03.1-.1.1l-.9-.1c-.1,0-.1.1-.1.1l.7.7v.1s0,.1-.1,0h-1c-.1,0-.1.1,0,.2l.8.6c.1,0,0,.1,0,.1l-.9.2c-.1,0-.1.1,0,.2l1,.5h0l3.6.2s.1,0,.1-.1c0-.2.1-.3.1-.5.1-.2.2-.3.3-.4v-.1l-2.7-2.4h0s-1.2-.3-1.2-.3Z"/>
    <path class="cls-1" d="M127.9,1.4c0-.1-.1-.1-.1-.1l-.8.5c-.07,0-.1-.03-.1-.1l.1-.9c0-.1-.1-.1-.1-.1l-.7.7h-.1s-.1,0,0-.1V.3c0-.1-.1-.1-.2,0l-.6.8c0,.1-.1,0-.1,0l-.2-1c0-.1-.1-.1-.2,0l-.5,1h0l-.3,3.6s0,.1.1.1c.2,0,.3.1.5.1.2.1.3.2.4.3h.1l2.4-2.7h0s.4-1.1.4-1.1Z"/>
    <path class="cls-1" d="M118.9,14.1c0,.1.1.1.1.1l.8-.5c.07,0,.1.03.1.1l-.1.9c0,.1.1.1.1.1l.7-.7h.1s.1,0,.1.1v1c0,.1.1.1.2,0l.6-.8c0-.1.1,0,.2,0l.2,1c0,.1.1.1.2,0l.5-1h0l.2-3.6s0-.1-.1-.1c-.2,0-.3-.1-.5-.1-.2-.1-.3-.2-.4-.3h-.1l-2.4,2.7h0l-.5,1.1h0Z"/>
    <path class="cls-1" d="M28.2,34c0,4.6-3.6,8.1-10.8,8.1H2.4V11.3h14.2c7.5,0,10,4.4,10,8.1,0,4-2,5.9-4.3,6.9,2.7.9,5.9,3.1,5.9,7.7M5.9,25.1h10.6c3.3,0,6.4-1.6,6.4-5.3,0-2.6-1.7-5.1-6-5.1H5.9v10.4ZM24.6,33.7c0-2.9-2.2-5.5-7.2-5.5H5.9v10.6h11.8c4.4,0,6.9-1.9,6.9-5.1"/>
    <path class="cls-1" d="M50.9,35.4h3.9c-1.7,4.2-5.2,7.1-10.9,7.1-7.3,0-12.1-5.3-12.1-12s4.5-12,11.9-12,11.9,5.3,11.9,12v1.4h-20.1c.5,4.1,3.6,7.4,8.5,7.4,3.3,0,5.6-1.6,6.9-3.9M35.5,28.6h16.3c-.7-4-3.5-7-8.1-7s-7.5,3.1-8.2,7"/>
    <rect class="cls-1" x="59.9" y="9.6" width="3.6" height="32.5"/>
    <path class="cls-1" d="M88.4,22.6v-3.8h3.6v23.2h-3.6v-3.7c-1.8,2.5-4.6,4.1-8.6,4.1-7,0-11.6-5.3-11.6-12s4.6-12,11.6-12c4,.1,6.8,1.7,8.6,4.2M88.6,30.5c0-4.8-3-8.8-8.3-8.8s-8.5,4-8.5,8.8,3.2,8.8,8.5,8.8,8.3-4,8.3-8.8"/>
    <polygon class="cls-1" points="118.3 18.9 108.9 42.1 104.7 42.1 95.3 18.9 99.3 18.9 106.8 38.4 114.3 18.9 118.3 18.9"/>
    <rect class="cls-1" x="121.6" y="18.9" width="3.6" height="23.2"/>
    <path class="cls-1" d="M150.1,22.6v-3.8h3.6v23.2h-3.6v-3.7c-1.8,2.5-4.6,4.1-8.6,4.1-7,0-11.6-5.3-11.6-12s4.6-12,11.6-12c4,.1,6.8,1.7,8.6,4.2M150.3,30.5c0-4.8-3-8.8-8.3-8.8s-8.5,4-8.5,8.8,3.2,8.8,8.5,8.8,8.3-4,8.3-8.8"/>
  </g>
  <path class="cls-2" d="M220.65,20.9c-.15,0-.28.09-.33.22-1.98,4.67-6.63,7.82-11.78,7.82-1.21,0-2.42-.17-3.6-.52-3.28-.96-5.98-3.14-7.62-6.14s-2.01-6.45-1.05-9.73c1.59-5.41,6.63-9.18,12.27-9.18,1.21,0,2.42.17,3.6.52,3.28.96,5.98,3.14,7.62,6.14.23.42.43.85.61,1.29.06.14.19.23.34.23h2.64c.25,0,.43-.24.35-.48-.3-.88-.67-1.74-1.13-2.57-2.05-3.75-5.43-6.48-9.53-7.68-1.47-.43-2.98-.65-4.5-.65-1.71,0-3.4.27-5.03.82-1.6.53-3.11,1.31-4.47,2.32-2.83,2.09-4.86,4.98-5.85,8.35-.41,1.4-.63,2.82-.65,4.24,0,.34-.42.49-.65.23-.95-1.11-2.04-2.09-3.25-2.9-1.2-.8-2.49-1.43-3.86-1.88-.24-.08-.34-.37-.18-.57l7.82-10.18c.18-.24,0-.59-.29-.59h-15.82c-.2,0-.36.16-.36.36v2.48c0,.2.16.36.36.36h9.31c.3,0,.47.35.29.59l-7.19,9.36c-.18.24,0,.59.29.59h.69c.65,0,1.31.05,1.95.15.07.01.15.02.22.03,3.28.56,6.18,2.34,8.16,5.03,1.62,2.21,2.48,4.82,2.48,7.56,0,4.06-1.94,7.92-5.2,10.31-2.69,1.98-5.99,2.82-9.38,2.36-.5-.07-.99-.18-1.48-.3h-.05c-.23-.07-.46.1-.46.34v2.55c0,.17.12.32.29.36h.07c1.14.26,2.3.39,3.46.39,3.43,0,6.7-1.07,9.46-3.1,3.44-2.53,5.69-6.25,6.33-10.47.11-.71.17-1.43.18-2.14,0-.34.42-.5.64-.24,1.99,2.34,4.63,4.06,7.65,4.95,1.47.43,2.98.65,4.5.65,1.71,0,3.4-.27,5.03-.82,1.6-.53,3.11-1.31,4.47-2.32,2.63-1.94,4.56-4.57,5.62-7.64.08-.23-.1-.48-.35-.48h-2.65v-.02Z"/>
  <g>
    <path class="cls-1" d="M206.51,18.5h-1.19v-2.41l.1-.79h-.03l-.2.52-.53.94h-.94l-.51-.93-.21-.54h-.03l.1.81v2.39h-1.19v-4.89h1.22l1.1,2.05,1.1-2.05h1.22v4.89h-.01Z"/>
    <path class="cls-1" d="M207.7,13.61h1.16v1.74h1.08c.91,0,1.33.48,1.38,1.19,0,.22,0,.58,0,.79-.05.71-.47,1.17-1.38,1.17h-2.24v-4.89ZM209.87,16.42h-1.01v1.01h1.01c.19,0,.27-.13.27-.22,0-.22,0-.36,0-.58,0-.09-.08-.22-.27-.22h0ZM212.03,13.61h1.16v4.89h-1.16v-4.89Z"/>
    <path class="cls-1" d="M219.08,14.76s-.74-.13-1.36-.13c-.46,0-.74.3-.75.61,0,.52,0,1.08,0,1.61,0,.31.27.62.75.62.71,0,1.42-.16,1.42-.16l.04,1.07s-.73.19-1.46.19c-1.17,0-1.92-.78-1.94-1.7,0-.55,0-1.09,0-1.63.02-.92.79-1.7,1.94-1.7.71,0,1.4.15,1.4.15l-.04,1.07h0Z"/>
    <path class="cls-1" d="M224.04,16.87c-.06.92-.88,1.7-2.01,1.7s-1.93-.78-2.02-1.7c-.03-.31-.03-1.25,0-1.62.07-.92.87-1.7,2.02-1.7s1.96.77,2.01,1.7c.02.37.02,1.3,0,1.62ZM222.85,15.27c-.02-.31-.31-.66-.82-.66s-.8.35-.82.66c-.02.3-.02,1.29,0,1.58.02.31.3.66.82.66s.8-.34.82-.66c.02-.29.02-1.28,0-1.58Z"/>
    <path class="cls-1" d="M228.61,13.61v1.1h-2.31v.76h2.11v1.03h-2.11v.89h2.37v1.1h-3.56v-4.89h3.5Z"/>
    <path class="cls-1" d="M229.27,17.43h.43s.35-.59.35-1.82v-1.99h3.38v3.81h.45v2.19h-1.15l-.04-1.12h-2.23l-.04,1.12h-1.15v-2.19h0ZM231.22,15.71c0,.95-.27,1.72-.27,1.72h1.29v-2.74h-1.01v1.02h0Z"/>
    <path class="cls-1" d="M237.46,18.5v-2.24l.06-.66-.27.62-1.32,2.28h-1.2v-4.89h1.18v2.26l-.06.64.27-.62,1.32-2.28h1.2v4.89s-1.18,0-1.18,0Z"/>
    <path class="cls-1" d="M243.74,13.61v4.89h-1.2v-1.98h-1.52v1.98h-1.19v-4.89h1.19v1.84h1.52v-1.84s1.2,0,1.2,0Z"/>
    <path class="cls-1" d="M245.87,18.5h-1.4l1-1.74s-.55-.23-.59-1.07c0-.3,0-.55,0-.85.04-.71.49-1.24,1.42-1.24h2.12v4.89h-1.19v-1.55h-.56l-.8,1.55h0ZM246.35,15.86h.89v-1.15h-.89c-.21,0-.3.12-.31.23,0,.22,0,.43,0,.68,0,.1.1.24.31.24Z"/>
    <path class="cls-1" d="M253.11,13.61v1.1h-2.31v.76h2.11v1.03h-2.11v.89h2.37v1.1h-3.56v-4.89h3.5Z"/>
    <path class="cls-1" d="M258.86,18.5h-1.19v-2.41l.1-.79h-.03l-.2.52-.53.94h-.94l-.51-.93-.21-.54h-.03l.1.81v2.39h-1.19v-4.89h1.22l1.1,2.05,1.1-2.05h1.22v4.89h-.01Z"/>
  </g>
</svg>