<svg width="390" height="844" xmlns="http://www.w3.org/2000/svg" fill="none">
 <defs>
  <filter color-interpolation-filters="sRGB" filterUnits="userSpaceOnUse" height="844" width="390" y="0" x="0" id="shadow"/>
  <linearGradient y2="1" x2="1" y1="0" x1="0" id="bg">
   <stop stop-color="#F5F7FC" offset="0"/>
   <stop stop-color="#EEF2F8" offset="1"/>
  </linearGradient>
 </defs>
 <g>
  <title>Layer 1</title>
  <rect id="svg_1" fill="url(#bg)" rx="42" height="844" width="390"/>
  <text id="svg_2" fill="#24324D" font-weight="700" font-size="12" font-family="Arial" y="32" x="26">9:41</text>
  <rect id="svg_3" fill="#49559F" rx="13" height="26" width="140" y="8" x="125"/>
  <rect id="svg_4" fill="#FFFFFF" rx="18" height="54" width="358" y="54" x="16"/>
  <text id="svg_5" fill="#49559F" font-weight="700" font-size="24" font-family="Arial" y="88" x="30">Belavia</text>
  <rect id="svg_6" fill="#E8252D" rx="1.5" height="3" width="64" y="92" x="30"/>
  <text id="svg_7" fill="#49559F" font-weight="700" font-size="14" font-family="Arial" y="144" x="24">← К заказу</text>
  <text id="svg_8" fill="#49559F" font-weight="700" font-size="28" font-family="Arial" y="184" x="24">Документы</text>
  <g id="svg_9" filter="url(#shadow)">
   <rect id="svg_10" fill="#FFFFFF" rx="22" height="82" width="342" y="202" x="24"/>
  </g>
  <text id="svg_11" fill="#24324D" font-weight="700" font-size="22" font-family="Arial" y="238" x="40">PNR 97BNT5</text>
  <text id="svg_12" fill="#52607A" font-size="14" font-family="Arial" y="264" x="40">MSQ → IST · 12 марта 2026</text>
  <g id="svg_13" filter="url(#shadow)">
   <rect id="svg_14" fill="#FFFFFF" rx="22" height="116" width="342" y="300" x="24"/>
  </g>
  <circle id="svg_15" fill="#EEF3FF" r="16" cy="336" cx="52"/>
  <text id="svg_16" fill="#49559F" font-weight="700" font-size="12" font-family="Arial" text-anchor="middle" y="341" x="52">PDF</text>
  <text id="svg_17" fill="#24324D" font-weight="700" font-size="16" font-family="Arial" y="341.33333" x="83.77778">Квитанция электронного билета</text>
  <rect id="svg_18" stroke="#D7DEEC" fill="#FFFFFF" rx="12" height="36" width="140" y="364" x="40"/>
  <text id="svg_19" fill="#49559F" font-weight="700" font-size="13" font-family="Arial" text-anchor="middle" y="387" x="110">Скачать</text>
  <rect id="svg_20" fill="#49559F" rx="12" height="36" width="148" y="364" x="194"/>
  <text id="svg_21" fill="#FFFFFF" font-weight="700" font-size="13" font-family="Arial" text-anchor="middle" y="387" x="268">Открыть</text>
  <g id="svg_22" filter="url(#shadow)">
   <rect id="svg_23" fill="#FFFFFF" rx="22" height="116" width="342" y="432" x="24"/>
  </g>
  <circle id="svg_24" fill="#EEF3FF" r="16" cy="468" cx="52"/>
  <text id="svg_25" fill="#49559F" font-weight="700" font-size="12" font-family="Arial" text-anchor="middle" y="473" x="52">PK</text>
  <text id="svg_26" fill="#24324D" font-weight="700" font-size="16" font-family="Arial" y="472.22222" x="89.33333">Посадочный талон</text>
  <rect id="svg_27" stroke="#D7DEEC" fill="#FFFFFF" rx="12" height="36" width="140" y="496" x="40"/>
  <text id="svg_28" fill="#49559F" font-weight="700" font-size="13" font-family="Arial" text-anchor="middle" y="519" x="110">В кошелек</text>
  <rect id="svg_29" fill="#49559F" rx="12" height="36" width="148" y="496" x="194"/>
  <text id="svg_30" fill="#FFFFFF" font-weight="700" font-size="13" font-family="Arial" text-anchor="middle" y="519" x="268">Открыть</text>
  <g id="svg_31" filter="url(#shadow)">
   <rect id="svg_32" fill="#FFFFFF" rx="22" height="116" width="342" y="564" x="24"/>
  </g>
  <circle id="svg_33" fill="#EEF3FF" r="16" cy="600" cx="52"/>
  <text id="svg_34" fill="#49559F" font-weight="700" font-size="12" font-family="Arial" text-anchor="middle" y="605" x="52">PDF</text>
  <text id="svg_35" fill="#24324D" font-weight="700" font-size="16" font-family="Arial" y="604.22222" x="89.33333">Страховой полис</text>
  <rect id="svg_36" stroke="#D7DEEC" fill="#FFFFFF" rx="12" height="36" width="140" y="628" x="40"/>
  <text id="svg_37" fill="#49559F" font-weight="700" font-size="13" font-family="Arial" text-anchor="middle" y="651" x="110">Скачать</text>
  <rect id="svg_38" fill="#49559F" rx="12" height="36" width="148" y="628" x="194"/>
  <text id="svg_39" fill="#FFFFFF" font-weight="700" font-size="13" font-family="Arial" text-anchor="middle" y="651" x="268">Открыть</text>
  <rect id="svg_40" fill="#49559F" rx="2" height="4" width="130" y="832" x="130"/>
 </g>
</svg>