<svg width="390" height="844" xmlns="http://www.w3.org/2000/svg" fill="none">
 <defs>
  <filter color-interpolation-filters="sRGB" filterUnits="userSpaceOnUse" height="844" width="390" y="0" x="0" id="shadow"/>
  <linearGradient y2="1" x2="1" y1="0" x1="0" id="bg">
   <stop stop-color="#F5F7FC" offset="0"/>
   <stop stop-color="#EEF2F8" offset="1"/>
  </linearGradient>
 </defs>
 <g>
  <title>Layer 1</title>
  <rect id="svg_1" fill="url(#bg)" rx="42" height="844" width="390"/>
  <text id="svg_2" fill="#24324D" font-weight="700" font-size="12" font-family="Arial" y="32" x="26">9:41</text>
  <rect id="svg_3" fill="#49559F" rx="13" height="26" width="140" y="8" x="125"/>
  <rect id="svg_4" fill="#FFFFFF" rx="18" height="54" width="358" y="54" x="16"/>
  <text id="svg_5" fill="#49559F" font-weight="700" font-size="24" font-family="Arial" y="88" x="30">Belavia</text>
  <rect id="svg_6" fill="#E8252D" rx="1.5" height="3" width="64" y="92" x="30"/>
  <text id="svg_7" fill="#49559F" font-weight="700" font-size="14" font-family="Arial" y="144" x="24">← К заказу</text>
  <text id="svg_8" fill="#49559F" font-weight="700" font-size="28" font-family="Arial" y="184" x="24">Новые параметры</text>
  <g id="svg_9" filter="url(#shadow)">
   <rect id="svg_10" fill="#FFFFFF" rx="22" height="90" width="342" y="202" x="24"/>
  </g>
  <text id="svg_11" fill="#24324D" font-weight="700" font-size="22" font-family="Arial" y="238" x="40">PNR 97BNT5</text>
  <text id="svg_12" fill="#52607A" font-size="14" font-family="Arial" y="264" x="40">MSQ → IST · 12 марта 2026</text>
  <g id="svg_13" filter="url(#shadow)">
   <rect id="svg_14" fill="#FFFFFF" rx="22" height="94" width="342" y="308" x="24"/>
  </g>
  <text id="svg_15" fill="#49559F" font-weight="700" font-size="20" font-family="Arial" y="344" x="40">Новая дата</text>
  <rect id="svg_16" stroke="#D7DEEC" fill="#F8FAFD" rx="12" height="36" width="310" y="356" x="40"/>
  <text id="svg_17" fill="#24324D" font-size="14" font-family="Arial" y="379" x="56">15 марта 2026</text>
  <g id="svg_18" filter="url(#shadow)">
   <rect id="svg_19" fill="#FFFFFF" rx="22" height="198" width="342" y="418" x="24"/>
  </g>
  <text id="svg_20" fill="#49559F" font-weight="700" font-size="20" font-family="Arial" y="454" x="40">Рейсы</text>
  <rect id="svg_21" fill="#F8FAFD" rx="14" height="52" width="310" y="472" x="40"/>
  <text id="svg_22" fill="#24324D" font-weight="700" font-size="16" font-family="Arial" y="494" x="56">B2 785 · 08:30 — 13:05</text>
  <text id="svg_23" fill="#52607A" font-size="13" font-family="Arial" y="514" x="56">прямой рейс</text>
  <rect id="svg_24" fill="#EEF3FF" rx="14" height="28" width="64" y="484" x="270"/>
  <text id="svg_25" fill="#49559F" font-weight="700" font-size="12" font-family="Arial" text-anchor="middle" y="503" x="302">Выбран</text>
  <rect id="svg_26" fill="#F8FAFD" rx="14" height="52" width="310" y="538" x="40"/>
  <text id="svg_27" fill="#24324D" font-weight="700" font-size="16" font-family="Arial" y="560" x="56">B2 787 · 15:20 — 19:55</text>
  <text id="svg_28" fill="#52607A" font-size="13" font-family="Arial" y="580" x="56">прямой рейс</text>
  <rect id="svg_29" fill="#F3F6FB" rx="14" height="28" width="64" y="550" x="270"/>
  <text id="svg_30" fill="#52607A" font-weight="700" font-size="12" font-family="Arial" text-anchor="middle" y="569" x="302">Выбрать</text>
  <g id="svg_31" filter="url(#shadow)">
   <rect id="svg_32" fill="#FFFFFF" rx="22" height="128" width="342" y="632" x="24"/>
  </g>
  <text id="svg_33" fill="#49559F" font-weight="700" font-size="20" font-family="Arial" y="668" x="40">Было — станет</text>
  <text id="svg_34" fill="#52607A" font-size="13" font-family="Arial" y="694" x="40">12 марта · 11:20 → 15 марта · 08:30</text>
  <rect id="svg_35" fill="#49559F" rx="12" height="40" width="310" y="712" x="40"/>
  <text id="svg_36" fill="#FFFFFF" font-weight="700" font-size="14" font-family="Arial" text-anchor="middle" y="738" x="195">Перейти к расчету</text>
  <rect id="svg_37" fill="#49559F" rx="2" height="4" width="130" y="832" x="130"/>
 </g>
</svg>