<svg width="1440" height="920.0000000000001" xmlns="http://www.w3.org/2000/svg" fill="none">
 <defs>
  <filter color-interpolation-filters="sRGB" filterUnits="userSpaceOnUse" height="920" width="1440" y="0" x="0" id="shadow"/>
  <linearGradient y2="1" x2="1" y1="0" x1="0" id="bg">
   <stop stop-color="#F5F7FC" offset="0"/>
   <stop stop-color="#EEF2F8" offset="1"/>
  </linearGradient>
 </defs>
 <g>
  <title>Layer 1</title>
  <rect id="svg_1" fill="url(#bg)" height="920" width="1440"/>
  <rect id="svg_2" fill-opacity="0.74" fill="#FFFFFF" rx="24" height="840" width="1360" y="40" x="40"/>
  <rect id="svg_3" fill="#FFFFFF" rx="20" height="72" width="1296" y="64" x="72"/>
  <text id="svg_4" fill="#49559F" font-weight="700" font-size="30" font-family="Arial" y="109" x="104">Belavia</text>
  <rect id="svg_5" fill="#E8252D" rx="2" height="4" width="78" y="116" x="104"/>
  <text id="svg_6" fill="#52607A" font-size="15" font-family="Arial" y="107" x="941.25005">Бронирование</text>
  <text style="cursor: move;" id="svg_7" fill="#52607A" font-size="15" font-family="Arial" y="107" x="1095.75003">Мои поездки</text>
  <text style="cursor: move;" id="svg_8" fill="#49559F" font-weight="700" font-size="15" font-family="Arial" y="108.25" x="1224.00003">Личный кабинет</text>
  <text id="svg_9" fill="#49559F" font-weight="700" font-size="15" font-family="Arial" y="208" x="104">← Назад к заказу</text>
  <text id="svg_10" fill="#49559F" font-weight="700" font-size="42" font-family="Arial" y="260" x="104">Выбор новых параметров</text>
  <g id="svg_11" filter="url(#shadow)">
   <rect id="svg_12" fill="#FFFFFF" rx="24" height="120" width="1232" y="292" x="104"/>
  </g>
  <text id="svg_13" fill="#24324D" font-weight="700" font-size="28" font-family="Arial" y="338" x="136">PNR 97BNT5</text>
  <text id="svg_14" fill="#52607A" font-size="16" font-family="Arial" y="372" x="136">Текущий маршрут: MSQ → IST · 12 марта 2026</text>
  <g id="svg_15" filter="url(#shadow)">
   <rect id="svg_16" fill="#FFFFFF" rx="24" height="356" width="792" y="444" x="104"/>
  </g>
  <text id="svg_17" fill="#49559F" font-weight="700" font-size="24" font-family="Arial" y="488" x="136">Новые параметры перелета</text>
  <text id="svg_18" fill="#24324D" font-weight="700" font-size="14" font-family="Arial" y="536" x="136">Новая дата</text>
  <rect id="svg_19" stroke="#D7DEEC" fill="#F8FAFD" rx="16" height="56" width="728" y="548" x="136"/>
  <text id="svg_20" fill="#24324D" font-size="16" font-family="Arial" y="582" x="160">15 марта 2026</text>
  <text id="svg_21" fill="#24324D" font-weight="700" font-size="14" font-family="Arial" y="644" x="136">Доступные рейсы</text>
  <rect id="svg_22" fill="#FFFFFF" rx="16" height="56" width="728" y="656" x="136"/>
  <text id="svg_23" fill="#24324D" font-weight="700" font-size="18" font-family="Arial" y="690" x="160">B2 785 · 08:30 — 13:05</text>
  <text id="svg_24" fill="#52607A" font-size="14" font-family="Arial" y="690" x="420">прямой рейс</text>
  <rect id="svg_25" fill="#EEF3FF" rx="16" height="32" width="96" y="668" x="744"/>
  <text id="svg_26" fill="#49559F" font-weight="700" font-size="13" font-family="Arial" text-anchor="middle" y="689" x="792">Выбран</text>
  <rect id="svg_27" fill="#FFFFFF" rx="16" height="56" width="728" y="724" x="136"/>
  <text id="svg_28" fill="#24324D" font-weight="700" font-size="18" font-family="Arial" y="758" x="160">B2 787 · 15:20 — 19:55</text>
  <text id="svg_29" fill="#52607A" font-size="14" font-family="Arial" y="758" x="420">прямой рейс</text>
  <rect id="svg_30" fill="#F3F6FB" rx="16" height="32" width="96" y="736" x="744"/>
  <text id="svg_31" fill="#52607A" font-weight="700" font-size="13" font-family="Arial" text-anchor="middle" y="757" x="792">Выбрать</text>
  <g id="svg_32" filter="url(#shadow)">
   <rect id="svg_33" fill="#FFFFFF" rx="24" height="356" width="408" y="444" x="928"/>
  </g>
  <text id="svg_34" fill="#49559F" font-weight="700" font-size="24" font-family="Arial" y="488" x="960">Было — станет</text>
  <text id="svg_35" fill="#24324D" font-weight="700" font-size="14" font-family="Arial" y="536" x="960">Было</text>
  <rect id="svg_36" fill="#F8FAFD" rx="18" height="76" width="344" y="548" x="960"/>
  <text id="svg_37" fill="#24324D" font-weight="700" font-size="18" font-family="Arial" y="580" x="984">12 марта · 11:20 — 15:55</text>
  <text id="svg_38" fill="#52607A" font-size="14" font-family="Arial" y="604" x="984">MSQ → IST · B2 781</text>
  <text id="svg_39" fill="#24324D" font-weight="700" font-size="14" font-family="Arial" y="668" x="960">Станет</text>
  <rect id="svg_40" fill="#F8FAFD" rx="18" height="76" width="344" y="680" x="960"/>
  <text id="svg_41" fill="#24324D" font-weight="700" font-size="18" font-family="Arial" y="712" x="984">15 марта · 08:30 — 13:05</text>
  <text id="svg_42" fill="#52607A" font-size="14" font-family="Arial" y="736" x="984">MSQ → IST · B2 785</text>
  <rect id="svg_43" fill="#49559F" rx="14" height="44" width="196" y="816" x="1108"/>
  <text id="svg_44" fill="#FFFFFF" font-weight="700" font-size="14" font-family="Arial" text-anchor="middle" y="844" x="1206">Перейти к расчету</text>
 </g>
</svg>