<svg width="1440" height="920.0000000000001" xmlns="http://www.w3.org/2000/svg" fill="none">
 <defs>
  <filter color-interpolation-filters="sRGB" filterUnits="userSpaceOnUse" height="920" width="1440" y="0" x="0" id="shadow"/>
  <linearGradient y2="1" x2="1" y1="0" x1="0" id="bg">
   <stop stop-color="#F5F7FC" offset="0"/>
   <stop stop-color="#EEF2F8" offset="1"/>
  </linearGradient>
 </defs>
 <g>
  <title>Layer 1</title>
  <rect id="svg_1" fill="url(#bg)" height="920" width="1440"/>
  <rect id="svg_2" fill-opacity="0.74" fill="#FFFFFF" rx="24" height="840" width="1360" y="40" x="40"/>
  <rect id="svg_3" fill="#FFFFFF" rx="20" height="72" width="1296" y="64" x="72"/>
  <text id="svg_4" fill="#49559F" font-weight="700" font-size="30" font-family="Arial" y="109" x="104">Belavia</text>
  <rect id="svg_5" fill="#E8252D" rx="2" height="4" width="78" y="116" x="104"/>
  <text id="svg_6" fill="#52607A" font-size="15" font-family="Arial" y="108.66666" x="946.66677">Бронирование</text>
  <text style="cursor: move;" id="svg_7" fill="#52607A" font-size="15" font-family="Arial" y="108.66666" x="1092.0001">Мои поездки</text>
  <text id="svg_8" fill="#49559F" font-weight="700" font-size="15" font-family="Arial" y="110.33333" x="1220.66675">Личный кабинет</text>
  <text id="svg_9" fill="#49559F" font-weight="700" font-size="15" font-family="Arial" y="208" x="104">← Назад к расчету</text>
  <text id="svg_10" fill="#49559F" font-weight="700" font-size="42" font-family="Arial" y="260" x="104">Результат возврата</text>
  <g id="svg_11" filter="url(#shadow)">
   <rect id="svg_12" fill="#FFFFFF" rx="24" height="112" width="1232" y="292" x="104"/>
  </g>
  <text id="svg_13" fill="#24324D" font-weight="700" font-size="28" font-family="Arial" y="338" x="136">PNR 97BNT5</text>
  <text id="svg_14" fill="#52607A" font-size="16" font-family="Arial" y="372" x="136">MSQ → IST · возврат оформлен</text>
  <g id="svg_15" filter="url(#shadow)">
   <rect id="svg_16" fill="#FFFFFF" rx="28" height="320" width="880" y="444" x="280"/>
  </g>
  <circle id="svg_17" fill="#EEF3FF" r="28" cy="516" cx="720"/>
  <path id="svg_18" stroke-linejoin="round" stroke-linecap="round" stroke-width="4" stroke="#49559F" d="m706,516l10,10l19,-19"/>
  <text id="svg_19" fill="#24324D" font-weight="700" font-size="32" font-family="Arial" text-anchor="middle" y="576" x="720">Возврат оформлен</text>
  <text id="svg_20" fill="#52607A" font-size="16" font-family="Arial" text-anchor="middle" y="612" x="720">Запрос на возврат успешно зарегистрирован. Изменения уже отражены в заказе.</text>
  <text id="svg_21" fill="#52607A" font-size="16" font-family="Arial" text-anchor="middle" y="638" x="720">Ожидаемая сумма возврата — 390 BYN. Срок зачисления зависит от банка.</text>
  <rect id="svg_22" stroke="#D7DEEC" fill="#FFFFFF" rx="14" height="44" width="180" y="676" x="456"/>
  <text id="svg_23" fill="#49559F" font-weight="700" font-size="14" font-family="Arial" text-anchor="middle" y="704" x="546">История событий</text>
  <rect id="svg_24" stroke="#D7DEEC" fill="#FFFFFF" rx="14" height="44" width="180" y="676" x="650"/>
  <text id="svg_25" fill="#49559F" font-weight="700" font-size="14" font-family="Arial" text-anchor="middle" y="704" x="740">Карточка заказа</text>
  <rect id="svg_26" fill="#49559F" rx="14" height="44" width="180" y="676" x="844"/>
  <text id="svg_27" fill="#FFFFFF" font-weight="700" font-size="14" font-family="Arial" text-anchor="middle" y="704" x="934">Вернуться в кабинет</text>
 </g>
</svg>