<svg width="390" height="844" xmlns="http://www.w3.org/2000/svg" fill="none">
 <defs>
  <filter color-interpolation-filters="sRGB" filterUnits="userSpaceOnUse" height="844" width="390" y="0" x="0" id="shadow"/>
  <linearGradient y2="1" x2="1" y1="0" x1="0" id="bg">
   <stop stop-color="#F5F7FC" offset="0"/>
   <stop stop-color="#EEF2F8" offset="1"/>
  </linearGradient>
 </defs>
 <g>
  <title>Layer 1</title>
  <rect id="svg_1" fill="url(#bg)" rx="42" height="844" width="390"/>
  <text id="svg_2" fill="#24324D" font-weight="700" font-size="12" font-family="Arial" y="32" x="26">9:41</text>
  <rect id="svg_3" fill="#49559F" rx="13" height="26" width="140" y="8" x="125"/>
  <rect id="svg_4" fill="#FFFFFF" rx="18" height="54" width="358" y="54" x="16"/>
  <text id="svg_5" fill="#49559F" font-weight="700" font-size="24" font-family="Arial" y="88" x="30">Belavia</text>
  <rect id="svg_6" fill="#E8252D" rx="1.5" height="3" width="64" y="92" x="30"/>
  <text id="svg_7" fill="#49559F" font-weight="700" font-size="28" font-family="Arial" y="144" x="24">Мои поездки</text>
  <rect id="svg_8" fill="#49559F" rx="14" height="42" width="162" y="166" x="24"/>
  <text id="svg_9" fill="#FFFFFF" font-weight="700" font-size="15" font-family="Arial" text-anchor="middle" y="193" x="105">Предстоящие</text>
  <rect id="svg_10" fill="#F3F6FB" rx="14" height="42" width="128" y="166" x="198"/>
  <text id="svg_11" fill="#52607A" font-weight="700" font-size="15" font-family="Arial" text-anchor="middle" y="193" x="262">Прошедшие</text>
  <rect id="svg_12" stroke="#D7DEEC" fill="#FFFFFF" rx="14" height="46" width="342" y="224" x="24"/>
  <text id="svg_13" fill="#6C7791" font-size="14" font-family="Arial" y="252" x="42">Поиск по PNR или городу</text>
  <g id="svg_14" filter="url(#shadow)">
   <rect id="svg_15" fill="#FFFFFF" rx="22" height="196" width="342" y="290" x="24"/>
  </g>
  <rect id="svg_16" fill="#EEF3FF" rx="14" height="28" width="96" y="306" x="40"/>
  <text id="svg_17" fill="#49559F" font-weight="700" font-size="12" font-family="Arial" text-anchor="middle" y="325" x="88">через 2 дня</text>
  <text id="svg_18" fill="#24324D" font-weight="700" font-size="28" font-family="Arial" y="366" x="40">MSQ → IST</text>
  <text id="svg_19" fill="#52607A" font-size="14" font-family="Arial" y="392" x="40">12 марта 2026 · 11:20 — 15:55</text>
  <text id="svg_20" fill="#52607A" font-size="14" font-family="Arial" y="416" x="40">PNR 97BNT5</text>
  <text id="svg_21" fill="#52607A" font-size="14" font-family="Arial" y="440" x="40">Оплачен · документы доступны</text>
  <rect id="svg_22" stroke="#D7DEEC" fill="#FFFFFF" rx="12" height="36" width="140" y="458" x="40"/>
  <text id="svg_23" fill="#49559F" font-weight="700" font-size="13" font-family="Arial" text-anchor="middle" y="481" x="110">Документы</text>
  <rect id="svg_24" fill="#49559F" rx="12" height="36" width="148" y="458" x="194"/>
  <text id="svg_25" fill="#FFFFFF" font-weight="700" font-size="13" font-family="Arial" text-anchor="middle" y="481" x="268">Открыть заказ</text>
  <g id="svg_26" filter="url(#shadow)">
   <rect id="svg_27" fill="#FFFFFF" rx="22" height="196" width="342" y="506" x="24"/>
  </g>
  <rect id="svg_28" fill="#F3F6FB" rx="14" height="28" width="112" y="522" x="40"/>
  <text id="svg_29" fill="#52607A" font-weight="700" font-size="12" font-family="Arial" text-anchor="middle" y="541" x="96">через 11 дней</text>
  <text id="svg_30" fill="#24324D" font-weight="700" font-size="28" font-family="Arial" y="582" x="40">IST → MSQ</text>
  <text id="svg_31" fill="#52607A" font-size="14" font-family="Arial" y="608" x="40">21 марта 2026 · 16:40 — 21:05</text>
  <text id="svg_32" fill="#52607A" font-size="14" font-family="Arial" y="632" x="40">PNR 97BNT5</text>
  <text id="svg_33" fill="#52607A" font-size="14" font-family="Arial" y="656" x="40">Оплачен · доступны изменения</text>
  <rect id="svg_34" stroke="#D7DEEC" fill="#FFFFFF" rx="12" height="36" width="140" y="674" x="40"/>
  <text id="svg_35" fill="#49559F" font-weight="700" font-size="13" font-family="Arial" text-anchor="middle" y="697" x="110">Документы</text>
  <rect id="svg_36" fill="#49559F" rx="12" height="36" width="148" y="674" x="194"/>
  <text id="svg_37" fill="#FFFFFF" font-weight="700" font-size="13" font-family="Arial" text-anchor="middle" y="697" x="268">Открыть заказ</text>
  <rect id="svg_38" fill="#49559F" rx="2" height="4" width="130" y="832" x="130"/>
 </g>
</svg>